<?xml version="1.0" encoding="UTF-8" standalone="no"?>
<!DOCTYPE svg PUBLIC "-//W3C//DTD SVG 1.1//EN"
 "http://www.w3.org/Graphics/SVG/1.1/DTD/svg11.dtd">
<!-- Generated by graphviz version 2.43.0 (0)
 -->
<!-- Title: mygraph Pages: 1 -->
<svg width="152pt" height="260pt"
 viewBox="0.00 0.00 152.00 260.00" xmlns="http://www.w3.org/2000/svg" xmlns:xlink="http://www.w3.org/1999/xlink">
<g id="graph0" class="graph" transform="scale(1 1) rotate(0) translate(4 256)">
<title>mygraph</title>
<polygon fill="white" stroke="transparent" points="-4,4 -4,-256 148,-256 148,4 -4,4"/>
<!-- //:cc_binary -->
<g id="node1" class="node">
<title>//:cc_binary</title>
<polygon fill="none" stroke="black" points="121,-252 23,-252 23,-216 121,-216 121,-252"/>
<text text-anchor="middle" x="72" y="-230.3" font-family="Times,serif" font-size="14.00">//:cc_binary</text>
</g>
<!-- //src/user:cc_user -->
<g id="node2" class="node">
<title>//src/user:cc_user</title>
<polygon fill="none" stroke="black" points="142.5,-180 1.5,-180 1.5,-144 142.5,-144 142.5,-180"/>
<text text-anchor="middle" x="72" y="-158.3" font-family="Times,serif" font-size="14.00">//src/user:cc_user</text>
</g>
<!-- //:cc_binary&#45;&gt;//src/user:cc_user -->
<g id="edge1" class="edge">
<title>//:cc_binary&#45;&gt;//src/user:cc_user</title>
<path fill="none" stroke="black" d="M72,-215.7C72,-207.98 72,-198.71 72,-190.11"/>
<polygon fill="black" stroke="black" points="75.5,-190.1 72,-180.1 68.5,-190.1 75.5,-190.1"/>
</g>
<!-- //src/data:cc_data -->
<g id="node3" class="node">
<title>//src/data:cc_data</title>
<polygon fill="none" stroke="black" points="142.5,-108 1.5,-108 1.5,-72 142.5,-72 142.5,-108"/>
<text text-anchor="middle" x="72" y="-86.3" font-family="Times,serif" font-size="14.00">//src/data:cc_data</text>
</g>
<!-- //src/user:cc_user&#45;&gt;//src/data:cc_data -->
<g id="edge2" class="edge">
<title>//src/user:cc_user&#45;&gt;//src/data:cc_data</title>
<path fill="none" stroke="black" d="M72,-143.7C72,-135.98 72,-126.71 72,-118.11"/>
<polygon fill="black" stroke="black" points="75.5,-118.1 72,-108.1 68.5,-118.1 75.5,-118.1"/>
</g>
<!-- //src/base:cc_base -->
<g id="node4" class="node">
<title>//src/base:cc_base</title>
<polygon fill="none" stroke="black" points="144,-36 0,-36 0,0 144,0 144,-36"/>
<text text-anchor="middle" x="72" y="-14.3" font-family="Times,serif" font-size="14.00">//src/base:cc_base</text>
</g>
<!-- //src/data:cc_data&#45;&gt;//src/base:cc_base -->
<g id="edge3" class="edge">
<title>//src/data:cc_data&#45;&gt;//src/base:cc_base</title>
<path fill="none" stroke="black" d="M72,-71.7C72,-63.98 72,-54.71 72,-46.11"/>
<polygon fill="black" stroke="black" points="75.5,-46.1 72,-36.1 68.5,-46.1 75.5,-46.1"/>
</g>
</g>
</svg>
