<?xml version="1.0" encoding="UTF-8" standalone="no"?>
<!DOCTYPE svg PUBLIC "-//W3C//DTD SVG 1.1//EN"
 "http://www.w3.org/Graphics/SVG/1.1/DTD/svg11.dtd">
<!-- Generated by graphviz version 2.43.0 (0)
 -->
<!-- Title: mygraph Pages: 1 -->
<svg width="214pt" height="188pt"
 viewBox="0.00 0.00 214.00 188.00" xmlns="http://www.w3.org/2000/svg" xmlns:xlink="http://www.w3.org/1999/xlink">
<g id="graph0" class="graph" transform="scale(1 1) rotate(0) translate(4 184)">
<title>mygraph</title>
<polygon fill="white" stroke="transparent" points="-4,4 -4,-184 210,-184 210,4 -4,4"/>
<!-- //:binary_4 -->
<g id="node1" class="node">
<title>//:binary_4</title>
<polygon fill="none" stroke="black" points="149,-180 57,-180 57,-144 149,-144 149,-180"/>
<text text-anchor="middle" x="103" y="-158.3" font-family="Times,serif" font-size="14.00">//:binary_4</text>
</g>
<!-- //:binary_5 -->
<g id="node2" class="node">
<title>//:binary_5</title>
<polygon fill="none" stroke="black" points="149,-108 57,-108 57,-72 149,-72 149,-108"/>
<text text-anchor="middle" x="103" y="-86.3" font-family="Times,serif" font-size="14.00">//:binary_5</text>
</g>
<!-- //:binary_4&#45;&gt;//:binary_5 -->
<g id="edge1" class="edge">
<title>//:binary_4&#45;&gt;//:binary_5</title>
<path fill="none" stroke="black" d="M103,-143.7C103,-135.98 103,-126.71 103,-118.11"/>
<polygon fill="black" stroke="black" points="106.5,-118.1 103,-108.1 99.5,-118.1 106.5,-118.1"/>
</g>
<!-- //sub_package:sub_target1 -->
<g id="node3" class="node">
<title>//sub_package:sub_target1</title>
<polygon fill="none" stroke="black" points="206,-36 0,-36 0,0 206,0 206,-36"/>
<text text-anchor="middle" x="103" y="-14.3" font-family="Times,serif" font-size="14.00">//sub_package:sub_target1</text>
</g>
<!-- //:binary_5&#45;&gt;//sub_package:sub_target1 -->
<g id="edge2" class="edge">
<title>//:binary_5&#45;&gt;//sub_package:sub_target1</title>
<path fill="none" stroke="black" d="M103,-71.7C103,-63.98 103,-54.71 103,-46.11"/>
<polygon fill="black" stroke="black" points="106.5,-46.1 103,-36.1 99.5,-46.1 106.5,-46.1"/>
</g>
</g>
</svg>
